<?xml version="1.0" encoding="utf-8"?><!DOCTYPE svg PUBLIC "-//W3C//DTD SVG 1.1//EN" "http://www.w3.org/Graphics/SVG/1.1/DTD/svg11.dtd"><svg version="1.1" xmlns="http://www.w3.org/2000/svg" xmlns:xlink="http://www.w3.org/1999/xlink" x="0px" y="0px" viewBox="0 0 100 100" enable-background="new 0 0 100 100" xml:space="preserve"><path id="p" d="M81.953,11.719c-1.25-0.99-2.734-2.083-4.453-3.281c-1.771-1.198-3.594-2.24-5.469-3.125
	c-1.822-0.885-4.193-1.797-7.109-2.734l-1.797-0.547C59.062,0.677,54.688,0,50,0s-9.635,0.833-14.844,2.5
	c-5.208,1.719-9.922,4.115-14.141,7.188S13.125,16.406,10,20.625C6.823,24.896,4.375,29.688,2.656,35C0.885,40.312,0,45.312,0,50
	s0.885,9.688,2.656,15c1.719,5.312,3.802,9.635,6.25,12.969l0.703,0.859c1.979,2.709,3.776,4.869,5.391,6.484
	c1.562,1.562,3.594,3.256,6.094,5.078c2.552,1.822,4.792,3.203,6.719,4.141c1.927,0.99,4.427,1.979,7.5,2.969l1.562,0.469
	C40.938,99.322,45.312,100,50,100s9.635-0.834,14.844-2.5c5.209-1.719,9.4-3.75,12.578-6.094l2.031-1.484
	c1.822-1.303,3.307-2.447,4.453-3.438c1.094-0.99,2.135-2.057,3.125-3.203c0.99-1.197,2.162-2.734,3.516-4.609l1.25-1.719
	c2.188-3.021,4.088-7.213,5.703-12.578C99.166,58.959,100,54.166,100,50c0-4.167-0.521-8.177-1.562-12.031l-0.078-0.156
	c-1.041-3.698-2.109-6.719-3.203-9.062c-1.146-2.292-2.656-4.74-4.531-7.344l-0.391-0.547c-1.666-2.292-3.15-4.141-4.453-5.547
	C84.479,13.958,83.203,12.76,81.953,11.719 M30.469,37.5h39.062L51.562,73.281h-3.125L30.469,37.5"></path></svg>